<svg xmlns="http://www.w3.org/2000/svg" viewBox="0 0 64 64" fill="none">
  <!-- 龙头 -->
  <path d="M32 8c-4 0-8 2-10 6l-2 4c0 2 1 4 3 5l4 2c2 1 4 0 6-1l2-3c1-2 1-4 0-6l-3-5c-1-1-2-2-4-2h4z" fill="#6366f1"/>
  <!-- 龙身 -->
  <path d="M20 22c-3 2-5 5-6 8l-1 6c0 3 1 6 3 8l5 4c3 2 6 3 10 2l6-2c3-2 5-4 6-7l1-5c0-3-1-6-3-8l-4-4c-2-2-5-3-8-3l-5 1c-2 0-3 1-4 0z" fill="#8b5cf6"/>
  <!-- 龙鳞纹理 -->
  <path d="M22 28l2 2 2-2-2-2-2 2zM28 26l2 2 2-2-2-2-2 2zM34 28l2 2 2-2-2-2-2 2zM26 32l2 2 2-2-2-2-2 2zM32 34l2 2 2-2-2-2-2 2zM38 32l2 2 2-2-2-2-2 2z" fill="#a78bfa"/>
  <!-- 龙角 -->
  <path d="M28 6l-2 6 4-1-2-5zM36 8l1 5-3 1 2-6z" fill="#4f46e5"/>
  <!-- 龙眼 -->
  <circle cx="28" cy="14" r="2" fill="#fbbf24"/>
  <circle cx="36" cy="14" r="2" fill="#fbbf24"/>
  <circle cx="28" cy="14" r="1" fill="#1e1b4b"/>
  <circle cx="36" cy="14" r="1" fill="#1e1b4b"/>
  <!-- 龙爪 -->
  <path d="M16 38l-3 4 2 1 3-3-2-2zM20 42l-2 5 2 1 3-4-3-2zM44 38l3 4-2 1-3-3 2-2zM40 42l2 5-2 1-3-4 3-2z" fill="#6366f1"/>
  <!-- 龙尾 -->
  <path d="M48 30c2 0 4 1 5 3l2 4c0 2-1 3-2 4l-3 1c-1 0-2-1-3-2l-1-3c0-2 0-4 2-5v-2z" fill="#8b5cf6"/>
  <!-- 龙须 -->
  <path d="M24 18c-3 1-5 3-6 5M40 18c3 1 5 3 6 5" stroke="#c4b5fd" stroke-width="1.5" stroke-linecap="round"/>
  <!-- 龙火焰气息 -->
  <path d="M30 20l-1 3 2 1-1-4zM34 20l1 3-2 1 1-4z" fill="#f97316"/>
</svg>
